<?xml version="1.0" encoding="UTF-8"?>
<svg width="30px" height="30px" viewBox="0 0 30 30" version="1.1" xmlns="http://www.w3.org/2000/svg" xmlns:xlink="http://www.w3.org/1999/xlink">
    <!-- Generator: Sketch 48.1 (47250) - http://www.bohemiancoding.com/sketch -->
    <title>Twitter Icon</title>
    <desc>Created with Sketch.</desc>
    <defs></defs>
    <g id="Project-Preview" stroke="none" stroke-width="1" fill="none" fill-rule="evenodd" transform="translate(-1190.000000, -573.000000)">
        <g id="Card---SMALL" transform="translate(250.000000, 115.000000)">
            <g id="Social" transform="translate(860.000000, 458.000000)">
                <g id="Twitter-Icon" transform="translate(80.000000, 0.000000)">
                    <circle id="Oval-4" stroke="#03A9F4" stroke-width="2" cx="15" cy="15" r="14"></circle>
                    <path d="M20.6,11.1442917 C20.1668185,11.3415899 19.7059032,11.4711842 19.233375,11.5285417 C19.7336878,11.2197232 20.1053705,10.7403126 20.2797917,10.1788333 C19.8139947,10.4624162 19.3022828,10.6625375 18.7676833,10.7701917 C18.3348583,10.2960417 17.71595,10 17.030825,10 C15.7173667,10 14.6518583,11.092575 14.6518583,12.44035 C14.6518583,12.6315083 14.6724,12.81735 14.7132417,12.9961833 C12.7352,12.8939583 10.9819083,11.9236667 9.80740833,10.4453917 C9.59555509,10.8199881 9.48463351,11.2431889 9.48550833,11.6735417 C9.48550833,12.5198583 9.905525,13.26685 10.5440083,13.70475 C10.1651917,13.6922165 9.7951113,13.5877115 9.46569167,13.40025 L9.46569167,13.4302167 C9.46569167,14.6129333 10.28615,15.5996583 11.3755833,15.8229583 C11.1715877,15.8807942 10.9604928,15.9097536 10.7484583,15.9089917 C10.5952417,15.9089917 10.4454083,15.89425 10.3004083,15.8654917 C10.6034583,16.834575 11.481675,17.540725 12.5235,17.559575 C11.7090833,18.2144917 10.6824833,18.6047833 9.56791667,18.6047833 C9.37579167,18.6047833 9.18608333,18.593425 9,18.5711917 C10.053425,19.2623583 11.304775,19.6666667 12.6482,19.6666667 C17.0259917,19.6666667 19.4194583,15.948625 19.4194583,12.7235833 C19.4194583,12.6174917 19.4172833,12.5114 19.413175,12.4074833 C19.8809271,12.0605413 20.2828627,11.632743 20.6,11.1442917" id="Twitter" fill="#03A9F4" fill-rule="nonzero"></path>
                </g>
            </g>
        </g>
    </g>
</svg>