<?xml version="1.0" encoding="UTF-8"?>
<svg width="9px" height="17px" viewBox="0 0 9 17" version="1.1" xmlns="http://www.w3.org/2000/svg" xmlns:xlink="http://www.w3.org/1999/xlink">
    <!-- Generator: Sketch 47.1 (45422) - http://www.bohemiancoding.com/sketch -->
    <title>Arrow Left Icon</title>
    <desc>Created with Sketch.</desc>
    <defs></defs>
    <g id="Desktop" stroke="none" stroke-width="1" fill="none" fill-rule="evenodd">
        <g id="Homepage" transform="translate(-60.000000, -338.000000)" fill-rule="nonzero" fill="#03A9F4">
            <g id="Hero" transform="translate(0.000000, 64.000000)">
                <g id="Arrow-Left" transform="translate(40.000000, 257.000000)">
                    <path d="M20.2993243,33.6841341 C20.6300743,34.0142866 21.164991,34.0142866 21.4949243,33.6841341 L28.488041,26.6882886 C28.8043892,26.3766471 28.9834935,25.9440837 28.9834935,25.4916976 C28.9834935,25.0393115 28.8043892,24.6067481 28.488041,24.2951067 L21.444291,17.2476219 C21.1125264,16.920751 20.5929281,16.9170466 20.2568576,17.2391565 C20.0947094,17.3940818 20.001726,17.6117183 20.0000238,17.8403004 C19.9983216,18.0688825 20.0880527,18.2879811 20.2478743,18.4454827 L26.694641,24.8936138 C26.8529457,25.049447 26.9425822,25.2658211 26.9425822,25.4921209 C26.9425822,25.7184207 26.8529457,25.9347948 26.694641,26.090628 L20.2993243,32.4879664 C20.1410642,32.643651 20.0514437,32.8598864 20.0514437,33.0860503 C20.0514437,33.3122142 20.1410642,33.5284496 20.2993243,33.6841341" id="Arrow-Left-Icon" transform="translate(24.491747, 25.465874) scale(-1, 1) translate(-24.491747, -25.465874) "></path>
                </g>
            </g>
        </g>
    </g>
</svg>