<?xml version="1.0" encoding="UTF-8"?>
<svg width="43px" height="43px" viewBox="0 0 43 43" version="1.1" xmlns="http://www.w3.org/2000/svg" xmlns:xlink="http://www.w3.org/1999/xlink">
    <!-- Generator: Sketch 47.1 (45422) - http://www.bohemiancoding.com/sketch -->
    <title>Instagram Icon</title>
    <desc>Created with Sketch.</desc>
    <defs></defs>
    <g id="Desktop" stroke="none" stroke-width="1" fill="none" fill-rule="evenodd">
        <g id="Homepage" transform="translate(-1148.000000, -2018.000000)">
            <g id="Footer" transform="translate(0.000000, 1730.000000)">
                <g id="Social" transform="translate(1067.000000, 289.000000)">
                    <g id="Instagram-Icon" transform="translate(82.000000, 0.000000)">
                        <rect id="Back-3" stroke="#03A9F4" stroke-width="2" x="0" y="0" width="41" height="41"></rect>
                        <path d="M24.234,13 L17.767,13 C15.135401,13.0027559 13.0027559,15.135401 13,17.767 L13,24.234 C13.0033069,26.8652085 15.1357909,28.9972452 17.767,29 L24.234,29 C26.8648186,28.9966943 28.9966943,26.8648186 29,24.234 L29,17.767 C28.9972452,15.1357909 26.8652085,13.0033069 24.234,13 Z M24.234,27.39 L17.767,27.39 C16.023437,27.39 14.61,25.976563 14.61,24.233 L14.61,17.767 C14.61,16.023437 16.023437,14.61 17.767,14.61 L24.234,14.61 C25.977563,14.61 27.391,16.023437 27.391,17.767 L27.391,24.234 C27.3904478,25.9771724 25.9771725,27.3900001 24.234,27.39 L24.234,27.39 Z M21,16.862 C18.7146457,16.862 16.862,18.7146457 16.862,21 C16.862,23.2853543 18.7146457,25.138 21,25.138 C23.2853543,25.138 25.138,23.2853543 25.138,21 C25.1352449,18.7157879 23.2842121,16.8647551 21,16.862 Z M21,23.529 C19.6032719,23.529 18.471,22.3967281 18.471,21 C18.471,19.6032719 19.6032719,18.471 21,18.471 C22.3967281,18.471 23.529,19.6032719 23.529,21 C23.529,21.6707325 23.2625526,22.3139935 22.788273,22.788273 C22.3139935,23.2625526 21.6707325,23.529 21,23.529 L21,23.529 Z M25.146,15.9 C25.5472265,15.9 25.9089457,16.141693 26.0624885,16.512378 C26.2160312,16.883063 26.1311599,17.3097399 25.8474499,17.5934499 C25.5637399,17.8771599 25.137063,17.9620312 24.766378,17.8084885 C24.395693,17.6549457 24.154,17.2932265 24.154,16.892 C24.154,16.3441335 24.5981335,15.9 25.146,15.9 L25.146,15.9 Z" id="Instagram" fill="#03A9F4"></path>
                    </g>
                </g>
            </g>
        </g>
    </g>
</svg>