<?xml version="1.0" encoding="UTF-8"?>
<svg width="30px" height="30px" viewBox="0 0 30 30" version="1.1" xmlns="http://www.w3.org/2000/svg" xmlns:xlink="http://www.w3.org/1999/xlink">
    <!-- Generator: Sketch 47.1 (45422) - http://www.bohemiancoding.com/sketch -->
    <title>Light Bulb Icon</title>
    <desc>Created with Sketch.</desc>
    <defs></defs>
    <g id="Desktop" stroke="none" stroke-width="1" fill="none" fill-rule="evenodd">
        <g id="Project-Registration-(Basics)" transform="translate(-990.000000, -359.000000)">
            <g id="Card---Advice" transform="translate(970.000000, 308.000000)">
                <g id="Light-Bulb-Icon" transform="translate(20.000000, 51.000000)">
                    <circle id="Oval-3" fill="#49E280" cx="15" cy="15" r="15"></circle>
                    <path d="M17.5953708,17.1198818 C17.518375,17.2179188 17.4276635,17.3247621 17.3314188,17.437684 L17.3125595,17.4595046 C16.8991361,17.9461051 16.4303818,18.4977 16.2400746,19.1843491 C16.2133443,19.2821524 16.1834967,19.4278832 16.1758595,19.7083565 L14.6601036,19.7083565 C14.6537132,19.4106604 14.6233981,19.257838 14.5956547,19.1548133 C14.4053475,18.4590463 13.9374504,17.9159459 13.5612,17.4792991 L13.5548876,17.4721294 C13.4485899,17.3487648 13.348137,17.2321023 13.2589061,17.1188687 C12.873304,16.6287613 12.6692809,16.0412403 12.6692809,15.4197414 C12.6692809,13.8985303 13.9066677,12.6610656 15.4279567,12.6610656 C16.9487781,12.6610656 18.1859311,13.8985303 18.1859311,15.4197414 C18.1859311,16.0419416 17.9819859,16.6297744 17.5953708,17.1198818 M15.4279567,11.7258949 C17.4644468,11.7258949 19.1211018,13.3828616 19.1214135,15.4197414 C19.1214135,16.2541475 18.8477202,17.0419509 18.3302591,17.6985966 C18.2422751,17.8101936 18.1457187,17.9235052 18.0437851,18.0436746 L18.0282769,18.0617546 C17.6742368,18.4782173 17.2766334,18.9461144 17.1418129,19.4334163 C17.1189792,19.5152437 17.1079909,19.6736772 17.1095496,19.890403 L17.1095496,20.1759418 C17.1095496,20.433971 16.9000713,20.6435272 16.6419642,20.6435272 L14.1935313,20.6435272 C13.9351125,20.6435272 13.7259459,20.433971 13.7259459,20.1759418 L13.7259459,19.8937541 C13.7275046,19.7278392 13.7231404,19.5122044 13.6930591,19.3999839 C13.5587842,18.9092531 13.1999124,18.4927124 12.8528861,18.0899656 L12.8467296,18.0826401 C12.7331843,17.9512486 12.6260293,17.8266371 12.5240957,17.6969601 C12.0071021,17.0406261 11.7341102,16.2532123 11.7341102,15.4197414 C11.7341102,13.3828616 13.3910769,11.7258949 15.4279567,11.7258949 Z M16.6416291,21.4776216 C16.9000479,21.4776216 17.1095262,21.6870219 17.1095262,21.945207 C17.1095262,22.2033141 16.9000479,22.4127923 16.6419408,22.4127923 L14.1935079,22.4127923 C13.9350891,22.4127923 13.7259226,22.2033141 13.7259226,21.945207 C13.7259226,21.6870219 13.9350891,21.4776216 14.1935079,21.4776216 L16.6416291,21.4776216 Z M21.8797386,14.9521248 C22.1379237,14.9521248 22.347324,15.1615251 22.347324,15.4197102 C22.347324,15.6778953 22.1379237,15.8872956 21.8797386,15.8872956 L20.266647,15.8872956 C20.008462,15.8872956 19.7990616,15.6778953 19.7990616,15.4197102 C19.7990616,15.1615251 20.008462,14.9521248 20.266647,14.9521248 L21.8797386,14.9521248 Z M11.0561737,15.4197102 C11.0561737,15.6778953 10.8470851,15.8872956 10.5885884,15.8872956 L8.97549677,15.8872956 C8.71738964,15.8872956 8.5079114,15.6778953 8.5079114,15.4197102 C8.5079114,15.1615251 8.71738964,14.9521248 8.97549677,14.9521248 L10.5885884,14.9521248 C10.8470851,14.9521248 11.0561737,15.1615251 11.0561737,15.4197102 Z M15.4276138,11.0485741 C15.1694287,11.0485741 14.9600284,10.8394075 14.9600284,10.5809887 L14.9600284,8.96758537 C14.9600284,8.70940032 15.1694287,8.5 15.4276138,8.5 C15.6857989,8.5 15.8951992,8.70940032 15.8951992,8.96758537 L15.8951992,10.5809887 C15.8951992,10.8394075 15.6857989,11.0485741 15.4276138,11.0485741 Z M19.1798617,18.510769 L20.3205362,19.6516773 C20.5031283,19.8343473 20.5028945,20.130251 20.3202245,20.312921 C20.2288895,20.404256 20.1092656,20.4498456 19.9896416,20.4498456 C19.8699398,20.4498456 19.7503159,20.404256 19.6589809,20.312921 L18.5183843,19.1719347 C18.3357143,18.9892647 18.3357143,18.6930494 18.5183843,18.5104573 C18.7009764,18.3277873 18.9971917,18.328099 19.1798617,18.510769 Z M11.6750931,12.3283474 L10.5347303,11.1876729 C10.3520603,11.0050029 10.3520603,10.7090993 10.5347303,10.5265072 C10.7174003,10.3441489 11.0135377,10.3441489 11.1962078,10.526741 L12.3362588,11.6674155 C12.5189289,11.8500855 12.5189289,12.1459891 12.3362588,12.3286592 C12.2449238,12.4199162 12.1252999,12.4655837 12.005676,12.4655837 C11.8860521,12.4655837 11.7663502,12.4196045 11.6750931,12.3283474 Z M11.675397,18.510769 C11.8579891,18.328099 12.1542045,18.328099 12.3368745,18.5104573 C12.5192328,18.6930494 12.5195445,18.9892647 12.3368745,19.171623 L11.1962,20.3126093 C11.104865,20.404256 10.9849293,20.4496118 10.8653054,20.4496118 C10.7456815,20.4496118 10.6260575,20.404256 10.5347225,20.312921 C10.3520525,20.130251 10.3520525,19.8340356 10.5347225,19.6516773 L11.675397,18.510769 Z M18.8492633,12.4652642 C18.7296393,12.4652642 18.6100154,12.4199084 18.5186804,12.3286514 C18.3360104,12.1459814 18.3360104,11.849766 18.5186804,11.667096 L19.6590432,10.5267332 C19.8416353,10.3441411 20.1378506,10.3441411 20.3202089,10.5264994 C20.5028789,10.7090915 20.5031907,11.0053068 20.3205206,11.1879769 L19.1798461,12.3283396 C19.0885111,12.4195967 18.9688872,12.4652642 18.8492633,12.4652642 Z" id="Bulb-Icon" fill="#FFFFFF"></path>
                </g>
            </g>
        </g>
    </g>
</svg>