<?xml version="1.0" encoding="UTF-8"?>
<svg width="30px" height="30px" viewBox="0 0 30 30" version="1.1" xmlns="http://www.w3.org/2000/svg" xmlns:xlink="http://www.w3.org/1999/xlink">
    <!-- Generator: Sketch 48.1 (47250) - http://www.bohemiancoding.com/sketch -->
    <title>LinkedIn</title>
    <desc>Created with Sketch.</desc>
    <defs></defs>
    <g id="Project-Preview" stroke="none" stroke-width="1" fill="none" fill-rule="evenodd" transform="translate(-1150.000000, -573.000000)">
        <g id="Card---SMALL" transform="translate(250.000000, 115.000000)">
            <g id="Social" transform="translate(860.000000, 458.000000)">
                <g id="LinkedIn" transform="translate(40.000000, 0.000000)">
                    <circle id="Oval-4" stroke="#03A9F4" stroke-width="2" cx="15" cy="15" r="14"></circle>
                    <path d="M21,16.4444111 L21,20.5111111 L18.6423333,20.5111111 L18.6423333,16.7167222 C18.6423333,15.7635111 18.3013333,15.1130444 17.4481,15.1130444 C16.7965333,15.1130444 16.4088444,15.5514556 16.2383444,15.9755667 C16.1761333,16.1271222 16.1601222,16.3382 16.1601222,16.5503778 L16.1601222,20.5111111 L13.8016,20.5111111 C13.8016,20.5111111 13.8333778,14.0846667 13.8016,13.4188 L16.1597556,13.4188 L16.1597556,14.4240778 C16.1549889,14.4316556 16.1487556,14.4397222 16.1442333,14.4470556 L16.1597556,14.4470556 L16.1597556,14.4240778 C16.4730111,13.9415444 17.0326667,13.2522111 18.2850778,13.2522111 C19.8366889,13.2522111 21,14.2659222 21,16.4444111 Z M11.3345444,10 C10.5277556,10 10,10.5292222 10,11.2251556 C10,11.9059333 10.5124778,12.4511667 11.3032556,12.4511667 L11.3190222,12.4511667 C12.1414556,12.4511667 12.6529556,11.9060556 12.6529556,11.2251556 C12.6374333,10.5292222 12.1414556,10 11.3345444,10 Z M10.1400667,20.5111111 L12.4976111,20.5111111 L12.4976111,13.4188 L10.1400667,13.4188 L10.1400667,20.5111111 Z" id="Linkedin" fill="#03A9F4" fill-rule="nonzero"></path>
                </g>
            </g>
        </g>
    </g>
</svg>