<?xml version="1.0" encoding="UTF-8"?>
<svg width="123px" height="24px" viewBox="0 0 123 24" version="1.1" xmlns="http://www.w3.org/2000/svg" xmlns:xlink="http://www.w3.org/1999/xlink">
    <!-- Generator: Sketch 47.1 (45422) - http://www.bohemiancoding.com/sketch -->
    <title>Logo</title>
    <desc>Created with Sketch.</desc>
    <defs></defs>
    <g id="Desktop" stroke="none" stroke-width="1" fill="none" fill-rule="evenodd">
        <g id="Project-Registration-(Basics)" transform="translate(-250.000000, -1609.000000)" stroke="#03A9F4" fill="#03A9F4">
            <g id="Footer" transform="translate(0.000000, 1312.000000)">
                <path d="M254.72,309.64 L257.156,309.64 C259.694679,309.64 260.964,308.912007 260.964,307.456 L260.964,303.004 C260.964,301.547993 259.690013,300.82 257.142,300.82 C254.593987,300.82 253.32,301.547993 253.32,303.004 L253.32,319.496 C253.32,319.925335 252.94667,320.14 252.2,320.14 C251.45333,320.14 251.08,319.925335 251.08,319.496 L251.08,303.284 C251.08,301.734659 251.630661,300.610004 252.732,299.91 C253.833339,299.209996 255.298658,298.86 257.128,298.86 C258.957342,298.86 260.427328,299.209996 261.538,299.91 C262.648672,300.610004 263.204,301.734659 263.204,303.284 L263.204,307.176 C263.204,308.912009 262.392008,309.994665 260.768,310.424 C261.197335,310.816002 261.533332,311.450662 261.776,312.328 C263.10134,317.088024 263.764,319.523999 263.764,319.636 C263.764,319.972002 263.437337,320.14 262.784,320.14 C262.130663,320.14 261.738667,319.925335 261.608,319.496 L259.844,313.112 C259.675999,312.458663 259.442668,312.043334 259.144,311.866 C258.845332,311.688666 258.192005,311.6 257.184,311.6 L254.72,311.6 C254.346665,311.6 254.16,311.273337 254.16,310.62 C254.16,309.966663 254.346665,309.64 254.72,309.64 Z M281.096,307.148 L281.096,307.988 C281.096,309.574675 280.769337,310.666664 280.116,311.264 C279.462663,311.861336 278.268009,312.243999 276.532,312.412 L271.072,312.944 L271.072,316.276 C271.072,317.732007 272.285321,318.46 274.712,318.46 C277.47468,318.46 278.856,317.82534 278.856,316.556 L278.856,315.492 C278.856,315.062665 279.22933,314.848 279.976,314.848 C280.72267,314.848 281.096,315.062665 281.096,315.492 L281.096,316.276 C281.096,319.03868 279.042687,320.42 274.936,320.42 C273.125324,320.42 271.655339,320.065337 270.526,319.356 C269.396661,318.646663 268.832,317.526674 268.832,315.996 L268.832,307.204 C268.832,305.654659 269.429327,304.530004 270.624,303.83 C271.818673,303.129997 273.377324,302.78 275.3,302.78 C277.222676,302.78 278.669328,303.115997 279.64,303.788 C280.610672,304.460003 281.096,305.579992 281.096,307.148 Z M271.072,306.924 L271.072,310.984 L276.336,310.452 C277.400005,310.339999 278.085998,310.116002 278.394,309.78 C278.702002,309.443998 278.856,308.846671 278.856,307.988 L278.856,306.924 C278.856,305.467993 277.55868,304.74 274.964,304.74 C272.36932,304.74 271.072,305.467993 271.072,306.924 Z M289.216,298.244 L289.216,316.724 C289.216,317.321336 289.355999,317.876664 289.636,318.39 C289.916001,318.903336 290.056,319.169333 290.056,319.188 C290.056,319.412001 289.878668,319.649999 289.524,319.902 C289.169332,320.154001 288.870668,320.28 288.628,320.28 C288.235998,320.28 287.862668,319.939337 287.508,319.258 C287.153332,318.576663 286.976,317.825337 286.976,317.004 L286.976,298.244 C286.976,297.814665 287.34933,297.6 288.096,297.6 C288.84267,297.6 289.216,297.814665 289.216,298.244 Z M302.46,320 L299.184,320 C297.541325,320 296.356004,319.664003 295.628,318.992 C294.899996,318.319997 294.536,317.181341 294.536,315.576 L294.536,315.352 C294.536,313.765325 294.862663,312.673336 295.516,312.076 C296.169337,311.478664 297.335992,311.096001 299.016,310.928 L303.86,310.452 L303.86,307.344 C303.86,305.887993 302.590679,305.16 300.052,305.16 L296.216,305.16 C295.842665,305.16 295.656,304.833337 295.656,304.18 C295.656,303.526663 295.842665,303.2 296.216,303.2 L300.052,303.2 C301.881342,303.2 303.346661,303.549997 304.448,304.25 C305.549339,304.950003 306.1,306.074659 306.1,307.624 L306.1,315.884 C306.1,317.097339 306.314665,318.058663 306.744,318.768 C306.874667,318.992001 306.94,319.132 306.94,319.188 C306.94,319.412001 306.762668,319.649999 306.408,319.902 C306.053332,320.154001 305.754668,320.28 305.512,320.28 C305.101331,320.28 304.723335,319.892671 304.378,319.118 C304.032665,318.343329 303.86,317.358673 303.86,316.164 L303.86,312.412 L299.184,312.888 C298.175995,313.000001 297.522668,313.223998 297.224,313.56 C296.925332,313.896002 296.776,314.493329 296.776,315.352 L296.776,315.576 C296.776,316.472004 296.929998,317.106665 297.238,317.48 C297.546002,317.853335 298.194662,318.04 299.184,318.04 L302.46,318.04 C302.833335,318.04 303.02,318.366663 303.02,319.02 C303.02,319.673337 302.833335,320 302.46,320 Z M319.484,312.832 C319.091998,312.477332 318.504004,312.3 317.72,312.3 C316.935996,312.3 316.348002,312.477332 315.956,312.832 C315.563998,313.186668 315.274668,313.73733 315.088,314.484 L313.828,319.496 C313.734666,319.925335 313.338004,320.14 312.638,320.14 C311.937996,320.14 311.588,319.972002 311.588,319.636 L312.904,314.176 C313.258668,312.682659 313.921328,311.730669 314.892,311.32 C313.977329,310.909331 313.314669,309.957341 312.904,308.464 L311.868,304.656 C311.681332,304.002663 311.588,303.638667 311.588,303.564 C311.588,303.227998 311.928663,303.06 312.61,303.06 C313.291337,303.06 313.697333,303.274665 313.828,303.704 L315.088,308.156 C315.293334,308.921337 315.587331,309.476665 315.97,309.822 C316.352669,310.167335 316.935996,310.34 317.72,310.34 C318.504004,310.34 319.087331,310.167335 319.47,309.822 C319.852669,309.476665 320.146666,308.921337 320.352,308.156 L321.612,303.704 C321.742667,303.274665 322.148663,303.06 322.83,303.06 C323.511337,303.06 323.852,303.227998 323.852,303.564 C323.852,303.638667 323.758668,304.002663 323.572,304.656 L322.536,308.464 C322.125331,309.957341 321.462671,310.909331 320.548,311.32 C321.518672,311.730669 322.181332,312.682659 322.536,314.176 L323.852,319.636 C323.852,319.972002 323.502004,320.14 322.802,320.14 C322.101996,320.14 321.705334,319.925335 321.612,319.496 L320.352,314.484 C320.165332,313.73733 319.876002,313.186668 319.484,312.832 Z M333.764,318.04 L338.3,318.04 C338.673335,318.04 338.86,318.366663 338.86,319.02 C338.86,319.673337 338.673335,320 338.3,320 L333.764,320 C332.158659,320 331.020003,319.612671 330.348,318.838 C329.675997,318.063329 329.34,316.808009 329.34,315.072 L329.34,299.784 C329.34,299.354665 329.71333,299.14 330.46,299.14 C331.20667,299.14 331.58,299.354665 331.58,299.784 L331.58,315.072 C331.58,316.154672 331.743332,316.919998 332.07,317.368 C332.396668,317.816002 332.961329,318.04 333.764,318.04 Z M354.344,303.704 L354.344,315.996 C354.344,317.545341 353.788672,318.669997 352.678,319.37 C351.567328,320.070003 350.097342,320.42 348.268,320.42 C346.438658,320.42 344.973339,320.070003 343.872,319.37 C342.770661,318.669997 342.22,317.545341 342.22,315.996 L342.22,303.704 C342.22,303.274665 342.59333,303.06 343.34,303.06 C344.08667,303.06 344.46,303.274665 344.46,303.704 L344.46,316.276 C344.46,317.732007 345.733987,318.46 348.282,318.46 C350.830013,318.46 352.104,317.732007 352.104,316.276 L352.104,303.704 C352.104,303.274665 352.47733,303.06 353.224,303.06 C353.97067,303.06 354.344,303.274665 354.344,303.704 Z M367.728,312.832 C367.335998,312.477332 366.748004,312.3 365.964,312.3 C365.179996,312.3 364.592002,312.477332 364.2,312.832 C363.807998,313.186668 363.518668,313.73733 363.332,314.484 L362.072,319.496 C361.978666,319.925335 361.582004,320.14 360.882,320.14 C360.181996,320.14 359.832,319.972002 359.832,319.636 L361.148,314.176 C361.502668,312.682659 362.165328,311.730669 363.136,311.32 C362.221329,310.909331 361.558669,309.957341 361.148,308.464 L360.112,304.656 C359.925332,304.002663 359.832,303.638667 359.832,303.564 C359.832,303.227998 360.172663,303.06 360.854,303.06 C361.535337,303.06 361.941333,303.274665 362.072,303.704 L363.332,308.156 C363.537334,308.921337 363.831331,309.476665 364.214,309.822 C364.596669,310.167335 365.179996,310.34 365.964,310.34 C366.748004,310.34 367.331331,310.167335 367.714,309.822 C368.096669,309.476665 368.390666,308.921337 368.596,308.156 L369.856,303.704 C369.986667,303.274665 370.392663,303.06 371.074,303.06 C371.755337,303.06 372.096,303.227998 372.096,303.564 C372.096,303.638667 372.002668,304.002663 371.816,304.656 L370.78,308.464 C370.369331,309.957341 369.706671,310.909331 368.792,311.32 C369.762672,311.730669 370.425332,312.682659 370.78,314.176 L372.096,319.636 C372.096,319.972002 371.746004,320.14 371.046,320.14 C370.345997,320.14 369.949334,319.925335 369.856,319.496 L368.596,314.484 C368.409332,313.73733 368.120002,313.186668 367.728,312.832 Z" id="Logo"></path>
            </g>
        </g>
    </g>
</svg>