<?xml version="1.0" encoding="UTF-8"?>
<svg width="20px" height="20px" viewBox="0 0 20 20" version="1.1" xmlns="http://www.w3.org/2000/svg" xmlns:xlink="http://www.w3.org/1999/xlink">
    <!-- Generator: Sketch 47.1 (45422) - http://www.bohemiancoding.com/sketch -->
    <title>Three Dots Icon - Blue</title>
    <desc>Created with Sketch.</desc>
    <defs></defs>
    <g id="Desktop" stroke="none" stroke-width="1" fill="none" fill-rule="evenodd">
        <g id="Project-Registration-(Basics)" transform="translate(-346.000000, -115.000000)">
            <g id="Group-3" transform="translate(287.000000, 115.000000)">
                <g id="Three-Dots-Icon---Blue" transform="translate(59.000000, 0.000000)">
                    <circle id="Oval-5" fill="#03A9F4" cx="10" cy="10" r="10"></circle>
                    <path d="M10,8 C10.55,8 11,7.55 11,7 C11,6.45 10.55,6 10,6 C9.45,6 9,6.45 9,7 C9,7.55 9.45,8 10,8 L10,8 Z M10,9 C9.45,9 9,9.45 9,10 C9,10.55 9.45,11 10,11 C10.55,11 11,10.55 11,10 C11,9.45 10.55,9 10,9 L10,9 Z M10,12 C9.45,12 9,12.45 9,13 C9,13.55 9.45,14 10,14 C10.55,14 11,13.55 11,13 C11,12.45 10.55,12 10,12 L10,12 Z" id="Shape" fill="#FFFFFF" transform="translate(10.000000, 10.000000) rotate(-270.000000) translate(-10.000000, -10.000000) "></path>
                </g>
            </g>
        </g>
    </g>
</svg>