<?xml version="1.0" encoding="UTF-8"?>
<svg width="10px" height="10px" viewBox="0 0 10 10" version="1.1" xmlns="http://www.w3.org/2000/svg" xmlns:xlink="http://www.w3.org/1999/xlink">
    <!-- Generator: Sketch 47.1 (45422) - http://www.bohemiancoding.com/sketch -->
    <title>Close Icon</title>
    <desc>Created with Sketch.</desc>
    <defs>
        <path d="M3,9.31373034e-15 L197,-1.02478789e-15 L197,-1.33226763e-15 C198.656854,-1.78240669e-14 200,1.34314575 200,3 L200,37 L200,37 C200,38.6568542 198.656854,40 197,40 L3,40 L3,40 C1.34314575,40 2.02906125e-16,38.6568542 0,37 L0,3 L0,3 C-2.02906125e-16,1.34314575 1.34314575,1.05184958e-14 3,1.02140518e-14 Z" id="path-1"></path>
    </defs>
    <g id="Desktop" stroke="none" stroke-width="1" fill="none" fill-rule="evenodd">
        <g id="Homepage" transform="translate(-422.000000, -738.000000)">
            <g id="Search-Criteria" transform="translate(249.000000, 674.000000)">
                <g id="Keyword-Input" transform="translate(1.000000, 49.000000)">
                    <g id="tag">
                        <use fill="#FFFFFF" fill-rule="evenodd" xlink:href="#path-1"></use>
                        <path stroke="#E0E0E0" stroke-width="1" d="M3,0.5 C1.61928813,0.5 0.5,1.61928813 0.5,3 L0.5,37 C0.5,38.3807119 1.61928813,39.5 3,39.5 L197,39.5 C198.380712,39.5 199.5,38.3807119 199.5,37 L199.5,3 C199.5,1.61928813 198.380712,0.5 197,0.5 L3,0.5 Z"></path>
                    </g>
                    <polygon id="Close-Icon" fill="#8A959A" points="182 16 181 15 177 19 173 15 172 16 176 20 172 24 173 25 177 21 181 25 182 24 178 20"></polygon>
                </g>
            </g>
        </g>
    </g>
</svg>