<?xml version="1.0" encoding="UTF-8"?>
<svg width="21px" height="17px" viewBox="0 0 21 17" version="1.1" xmlns="http://www.w3.org/2000/svg" xmlns:xlink="http://www.w3.org/1999/xlink">
    <!-- Generator: Sketch 47.1 (45422) - http://www.bohemiancoding.com/sketch -->
    <title>Heart Outline Icon </title>
    <desc>Created with Sketch.</desc>
    <defs></defs>
    <g id="Desktop" stroke="none" stroke-width="1" fill="none" fill-rule="evenodd">
        <g id="Homepage" transform="translate(-776.000000, -935.000000)" fill-rule="nonzero" fill="#FFFFFF">
            <g id="Card---BIG-1" transform="translate(490.000000, 723.000000)">
                <g id="Heart-Outline-Button" transform="translate(276.000000, 199.000000)">
                    <path d="M28.8528097,14.3577957 C26.8808363,12.5474014 23.6834559,12.5474014 21.7114825,14.3577957 L20.3728522,15.5855615 L19.0330425,14.3577957 C17.061069,12.5474014 13.864868,12.5474014 11.8928946,14.3577957 C9.67442447,16.3934573 9.67442447,19.6875493 11.8928946,21.7232109 L20.3728522,29.5061372 L28.8528097,21.7232109 C31.0701005,19.6875493 31.0701005,16.3922779 28.8528097,14.3577957 Z M27.5955587,20.5131363 L20.3728522,27.2534642 L13.1489662,20.5131363 C12.4212703,19.8444108 12.1393913,18.9716475 12.1393913,18.0434518 C12.1393913,17.1152562 12.3021498,16.3533574 13.0310252,15.6858113 C13.6738036,15.0949269 14.5383111,14.7694098 15.4641479,14.7694098 C16.3888053,14.7694098 17.2533128,15.3308089 17.8960913,15.9228727 L20.3728522,18.0752959 L22.8484337,15.9216933 C23.4923915,15.3296295 24.3557196,14.7682304 25.2815564,14.7682304 C26.2073932,14.7682304 27.0719007,15.0937475 27.7146791,15.6846319 C28.4435545,16.3521779 28.6051337,17.1140768 28.6051337,18.0422724 C28.6051337,18.970468 28.3244341,19.8444108 27.5955587,20.5131363 L27.5955587,20.5131363 Z" id="Heart-Outline-Icon-"></path>
                </g>
            </g>
        </g>
    </g>
</svg>