<?xml version="1.0" encoding="UTF-8"?>
<svg width="220px" height="140px" viewBox="0 0 220 140" version="1.1" xmlns="http://www.w3.org/2000/svg" xmlns:xlink="http://www.w3.org/1999/xlink">
    <!-- Generator: Sketch 47.1 (45422) - http://www.bohemiancoding.com/sketch -->
    <title>No Image Icon for CArd</title>
    <desc>Created with Sketch.</desc>
    <defs>
        <rect id="path-1" x="0" y="0" width="220" height="140"></rect>
    </defs>
    <g id="Desktop" stroke="none" stroke-width="1" fill="none" fill-rule="evenodd">
        <g id="Project-Registration-(Basics)" transform="translate(-971.000000, -571.000000)">
            <g id="Card---SMALL-Copy-2" transform="translate(971.000000, 571.000000)">
                <g id="matt-barrett-339981">
                    <g id="No-Image-Icon-for-CArd">
                        <mask id="mask-2" fill="white">
                            <use xlink:href="#path-1"></use>
                        </mask>
                        <use id="Mask" fill="#9DE0FF" xlink:href="#path-1"></use>
                        <path d="M-28.8649419,202.590874 C-28.8649419,203.001374 -28.8649419,203.001374 -28.8649419,202.590874 C-28.4544413,203.411875 -28.4544413,204.232876 -28.0439408,204.643376 C-28.0439408,204.643376 -28.0439408,205.053877 -27.6334402,205.053877 C-27.6334402,205.053877 -27.6334402,205.464378 -27.2229397,205.464378 L-27.2229397,205.874878 C-26.8124391,206.285379 -26.4019385,206.695879 -26.4019385,207.10638 L-25.991438,207.51688 L-25.5809374,207.927381 C-25.5809374,207.927381 -25.1704368,207.927381 -25.1704368,208.337882 C-24.7599363,208.337882 -24.7599363,208.748382 -24.3494357,208.748382 L-23.5284346,208.748382 C-23.117934,208.748382 -22.7074334,209.158883 -22.7074334,209.158883 L-21.8864323,209.158883 C-21.0654312,209.158883 -20.24443,209.569383 -19.8339295,209.569383 L240.423429,209.569383 C245.759936,209.569383 250.275442,205.053877 250.275442,199.71737 L250.275442,-58.8979864 C250.275442,-64.2344938 245.759936,-68.75 240.423429,-68.75 L-19.4234289,-68.75 C-24.7599363,-68.75 -29.2754425,-64.2344938 -29.2754425,-58.8979864 L-29.2754425,199.71737 C-29.2754425,200.538371 -28.8649419,201.359372 -28.8649419,202.590874 Z M-9.57141534,140.194788 L83.2017124,81.4932069 L106.600245,105.30224 L-9.57141534,181.655345 L-9.57141534,140.194788 Z M230.981916,189.865356 L13.8271169,189.865356 L174.332838,85.187712 L230.981916,139.373787 L230.981916,189.865356 Z M230.981916,-49.0459729 L230.981916,112.280749 L182.132349,65.4836848 C178.848344,62.1996803 173.922337,61.7891798 169.817332,64.2521832 L123.841268,94.2187244 L91.8222243,61.7891798 C88.5382198,58.5051752 83.612213,58.0946747 79.5072073,60.5576781 L-9.57141534,117.206756 L-9.57141534,-49.0459729 L230.981916,-49.0459729 Z M137.619289,54.4646408 C146.461104,54.4646408 153.628811,47.2969336 153.628811,38.4551187 C153.628811,29.6133038 146.461104,22.4455967 137.619289,22.4455967 C128.777474,22.4455967 121.609767,29.6133038 121.609767,38.4551187 C121.609767,47.2969336 128.777474,54.4646408 137.619289,54.4646408 Z" id="Image-Icon" fill="#03A9F4" fill-rule="nonzero" opacity="0.188292572" mask="url(#mask-2)"></path>
                    </g>
                </g>
            </g>
        </g>
    </g>
</svg>