<?xml version="1.0" encoding="UTF-8"?>
<svg width="30px" height="30px" viewBox="0 0 30 30" version="1.1" xmlns="http://www.w3.org/2000/svg" xmlns:xlink="http://www.w3.org/1999/xlink">
    <!-- Generator: Sketch 48.1 (47250) - http://www.bohemiancoding.com/sketch -->
    <title>VK Icon</title>
    <desc>Created with Sketch.</desc>
    <defs></defs>
    <g id="User-Profile-(About)" stroke="none" stroke-width="1" fill="none" fill-rule="evenodd" transform="translate(-432.000000, -185.000000)">
        <g id="Profile-Info" transform="translate(100.000000, 94.000000)">
            <g id="Social" transform="translate(332.000000, 91.000000)">
                <g id="VK-Icon">
                    <circle id="Oval-4" stroke="#03A9F4" stroke-width="2" cx="15" cy="15" r="14"></circle>
                    <path d="M20.9313433,18.6986624 C20.9155586,18.6646005 20.9009162,18.6366657 20.8872084,18.6139232 C20.6616526,18.2078813 20.2303759,17.7093117 19.5943129,17.1183183 L19.5810205,17.1045067 L19.5740627,17.0979643 L19.5672088,17.0911104 L19.5606664,17.0911104 C19.2718679,16.8157081 19.0888894,16.6306527 19.0122503,16.5361519 C18.8722645,16.3556657 18.840695,16.1726873 18.9173341,15.9877357 C18.9716461,15.8477499 19.1744593,15.5525128 19.5266046,15.100986 C19.7115562,14.862034 19.8583959,14.6701246 19.9662929,14.5257773 C20.7472226,13.4877224 21.0855562,12.8244514 20.9817092,12.5356529 L20.9415204,12.4682561 C20.9143124,12.4277558 20.8446311,12.3903709 20.7318532,12.3567244 C20.6190753,12.3226626 20.4746241,12.316951 20.2986034,12.3396935 L18.3489793,12.3530898 C18.3177214,12.3421858 18.2723402,12.3429128 18.2138743,12.3567244 C18.1550969,12.3701207 18.1255005,12.3769746 18.1255005,12.3769746 L18.0918541,12.3941094 L18.0650616,12.4143595 C18.0423191,12.4277558 18.0176035,12.4512252 17.9903955,12.485287 C17.963603,12.5190373 17.9409644,12.5587069 17.9231027,12.6037765 C17.7105278,13.1498042 17.4696027,13.6573046 17.198562,14.1265893 C17.0314721,14.406457 16.87809,14.6490437 16.7382081,14.8543493 C16.5982223,15.059551 16.480979,15.21096 16.3864782,15.3078492 C16.291562,15.4048424 16.2059921,15.4827276 16.1292491,15.5410897 C16.0521946,15.5999709 15.9938326,15.6246865 15.9532284,15.6157557 C15.9126242,15.6064094 15.874097,15.5974786 15.8380621,15.5885478 C15.7747154,15.5480474 15.724038,15.4928008 15.6859262,15.4227041 C15.6473989,15.3529188 15.6214372,15.2648566 15.6080409,15.1586211 C15.5946446,15.0526971 15.5865446,14.9614156 15.5840522,14.8847765 C15.5820791,14.8081373 15.5832215,14.6994095 15.5876869,14.5598391 C15.5921523,14.4198533 15.5946446,14.3249371 15.5946446,14.2755059 C15.5946446,14.1038468 15.5978639,13.9176491 15.6044062,13.7169128 C15.6112602,13.5160726 15.6169717,13.3570828 15.6214372,13.2398395 C15.6259026,13.1225962 15.6282911,12.9984991 15.6282911,12.8674441 C15.6282911,12.7368045 15.620191,12.6342037 15.6044062,12.5595377 C15.588933,12.485287 15.5650482,12.4131134 15.5333749,12.3429128 C15.5017015,12.2731276 15.4554896,12.2188156 15.3946353,12.1807037 C15.3337809,12.1421765 15.258388,12.1117493 15.1682487,12.0890068 C14.9289852,12.0350063 14.624298,12.0058253 14.2543949,12.0009445 C13.4151032,11.9920137 12.8759295,12.0464295 12.6365621,12.1636728 C12.5416459,12.213104 12.4560759,12.2809161 12.3794368,12.366486 C12.2983323,12.4658676 12.2869091,12.5201796 12.345375,12.5291105 C12.6163119,12.5697147 12.8078058,12.6667078 12.9209991,12.819986 L12.9614994,12.9015059 C12.9931728,12.9599718 13.0248461,13.0638188 13.0561041,13.2126316 C13.0876735,13.3615483 13.1080276,13.5262496 13.1168546,13.7067358 C13.1395971,14.0361385 13.1395971,14.3180832 13.1168546,14.5529852 C13.0946313,14.7873679 13.073135,14.9703464 13.0527809,15.100986 C13.0325308,15.2320409 13.0021036,15.337861 12.9614994,15.4193809 C12.9209991,15.5005893 12.8937911,15.5500205 12.8799795,15.5682976 C12.8665832,15.5861593 12.8552639,15.5974786 12.8463331,15.601944 C12.7875556,15.6246865 12.7267013,15.6360058 12.6633546,15.6360058 C12.6005271,15.6360058 12.5237842,15.6044363 12.4333334,15.5410897 C12.3432981,15.4778468 12.249628,15.3910307 12.1526349,15.2802259 C12.0557456,15.1699404 11.946187,15.015416 11.8240629,14.8166528 C11.7023542,14.6182011 11.5762839,14.3838184 11.445229,14.1127777 L11.3369165,13.9165068 C11.2691044,13.7903326 11.1766806,13.6065234 11.0594373,13.3647675 C10.942194,13.123427 10.8383469,12.8901866 10.7483116,12.6642155 C10.7121728,12.5697147 10.6578608,12.497541 10.5855833,12.4475906 L10.5519368,12.4273404 C10.5291943,12.4094787 10.4931594,12.3903709 10.4436244,12.3697053 C10.3937778,12.3494551 10.3422697,12.3348127 10.2878539,12.3258819 L8.4332498,12.3392781 C8.24383282,12.3392781 8.11516635,12.3822708 8.04745809,12.4678407 L8.02025017,12.5084449 C8.0068539,12.5311874 8,12.5672223 8,12.6167574 C8,12.6667078 8.01339627,12.7274583 8.04060419,12.7997358 C8.31154108,13.4357989 8.60563586,14.0495348 8.92403085,14.6405282 C9.24211429,15.2320409 9.51834738,15.707868 9.75283397,16.0688403 C9.98773594,16.4299164 10.2265841,16.7706385 10.4704169,17.090695 C10.7142497,17.4111669 10.875628,17.6164725 10.9543441,17.7069233 C11.0334755,17.797374 11.095576,17.8646669 11.1405418,17.9097365 L11.3097086,18.0723609 C11.418021,18.1806734 11.5770108,18.3104822 11.7871972,18.4613719 C11.9968644,18.612677 12.2293779,18.7615937 12.4841146,18.9084334 C12.7392668,19.0548577 13.03575,19.1744894 13.374499,19.2670171 C13.7128327,19.3595448 14.0422354,19.3968259 14.3627073,19.3785489 L15.1411447,19.3785489 C15.2988883,19.3651526 15.4186239,19.315306 15.4997284,19.2297361 L15.526521,19.1960896 C15.5446942,19.1688817 15.5617251,19.1270314 15.5771983,19.0706424 C15.5929831,19.0143573 15.6010831,18.9522568 15.6010831,18.8845485 C15.5966177,18.6905623 15.6112602,18.5157878 15.6449066,18.3600172 C15.678553,18.2046621 15.7170803,18.0874188 15.7601768,18.0082873 C15.8031695,17.9291559 15.8513545,17.8626938 15.9057703,17.8086933 C15.9596669,17.7543813 15.998298,17.7218772 16.0209367,17.7105579 C16.0432638,17.6991347 16.0611255,17.6914501 16.0749371,17.6865692 C16.1832496,17.6505343 16.310566,17.6858423 16.4574057,17.7916624 C16.6039339,17.8980018 16.7414273,18.0285375 16.8704054,18.184308 C16.998968,18.3400786 17.1535962,18.514957 17.3336669,18.7088394 C17.5145685,18.9027218 17.6724159,19.047173 17.8074171,19.1420892 L17.9429375,19.2231937 C18.0333882,19.2776095 18.1506315,19.3270407 18.2950827,19.3721103 C18.4394301,19.4174915 18.5656042,19.4289147 18.6739167,19.4061722 L20.4069159,19.3789642 C20.5780558,19.3789642 20.7114992,19.350614 20.806,19.2942251 C20.9009162,19.2378361 20.9569936,19.1757356 20.9751668,19.1084427 C20.9934439,19.0406306 20.9942746,18.9639915 20.9788014,18.8780062 C20.9626013,18.7924362 20.9468166,18.7324126 20.9313433,18.6986624 Z" id="Fill-1" fill="#03A9F4"></path>
                </g>
            </g>
        </g>
    </g>
</svg>